<svg width="797" height="744" viewBox="0 0 797 744" fill="none" xmlns="http://www.w3.org/2000/svg">
<path d="M257.753 235.788C106.804 241.595 150.537 369.285 191.272 432.405C323.889 592.028 417.533 481.996 373.129 374.66C328.726 267.325 566.079 387.961 594.628 260.865C627.732 113.492 446.438 228.529 257.753 235.788Z" stroke="white" stroke-opacity="0.1"/>
<path opacity="0.95875" d="M261.578 241.202C109.502 242.747 147.741 370.772 185.87 434.591C312.068 596.813 411.199 490.166 371.37 382.335C331.541 274.505 564.829 400.941 599.259 275.527C639.183 130.105 451.673 239.271 261.578 241.202Z" stroke="white" stroke-opacity="0.1"/>
<path opacity="0.9175" d="M265.182 246.685C112.163 243.966 144.863 372.169 180.34 436.611C299.964 601.234 404.461 498.102 369.255 389.907C334.048 281.713 562.987 413.794 603.257 290.217C649.952 146.923 456.455 250.085 265.182 246.685Z" stroke="white" stroke-opacity="0.1"/>
<path opacity="0.87625" d="M268.559 252.231C114.785 245.251 141.905 373.477 174.686 438.462C287.591 605.286 397.328 505.794 366.787 397.368C336.245 288.942 560.557 426.507 606.617 304.916C660.026 163.925 460.778 260.957 268.559 252.231Z" stroke="white" stroke-opacity="0.1"/>
<path opacity="0.835" d="M271.707 257.833C117.364 246.6 138.871 374.692 168.917 440.143C274.965 608.964 389.808 513.233 363.969 404.707C338.129 296.181 557.54 439.064 609.335 319.607C669.393 181.091 464.636 271.874 271.707 257.833Z" stroke="white" stroke-opacity="0.1"/>
<path opacity="0.79375" d="M274.621 263.484C119.897 248.012 135.765 375.815 163.039 441.65C262.101 612.262 381.91 520.41 360.805 411.917C339.699 303.423 553.942 451.448 611.408 334.271C678.042 198.4 468.025 282.824 274.621 263.484Z" stroke="white" stroke-opacity="0.1"/>
<path opacity="0.7525" d="M277.297 269.177C122.381 249.485 132.59 376.842 157.06 442.982C249.015 615.178 373.644 527.316 357.298 418.988C340.952 310.659 549.765 463.646 612.833 348.892C685.962 215.829 470.942 293.792 277.297 269.177Z" stroke="white" stroke-opacity="0.1"/>
<path opacity="0.71125" d="M279.732 274.906C124.813 251.018 129.352 377.774 150.986 444.138C235.723 617.708 365.019 533.943 353.453 425.911C341.887 317.879 545.016 475.642 613.608 363.45C693.143 233.359 473.381 304.765 279.732 274.906Z" stroke="white" stroke-opacity="0.1"/>
<path opacity="0.67" d="M281.924 280.662C127.19 252.607 126.052 378.609 144.825 445.116C222.24 619.848 356.047 540.283 349.275 432.679C342.502 325.075 539.7 487.422 613.733 377.93C699.577 250.968 475.341 315.731 281.924 280.662Z" stroke="white" stroke-opacity="0.1"/>
<path opacity="0.62875" d="M283.87 286.44C129.51 254.253 122.697 379.345 138.586 445.915C208.584 621.597 346.739 546.328 344.768 439.283C342.798 332.238 533.824 498.971 613.207 392.311C705.256 268.635 476.82 326.675 283.87 286.44Z" stroke="white" stroke-opacity="0.1"/>
<path opacity="0.5875" d="M285.566 292.232C131.768 255.951 119.289 379.983 132.274 446.534C194.771 622.951 337.105 552.07 339.938 445.715C342.772 339.36 527.394 510.276 612.031 406.578C710.172 286.337 477.813 337.583 285.566 292.232Z" stroke="white" stroke-opacity="0.1"/>
<path opacity="0.54625" d="M287.011 298.031C133.963 257.701 115.832 380.521 125.898 446.972C180.817 623.909 327.157 557.502 334.791 451.967C342.426 346.431 520.418 521.322 610.207 420.713C714.32 304.054 478.322 348.444 287.011 298.031Z" stroke="white" stroke-opacity="0.1"/>
<path opacity="0.505" d="M288.204 303.831C136.092 259.5 112.332 380.958 119.466 447.228C166.741 624.47 316.908 562.619 329.333 458.031C341.759 353.444 512.906 532.096 607.736 434.699C717.695 321.763 478.346 359.244 288.204 303.831Z" stroke="white" stroke-opacity="0.1"/>
<path opacity="0.46375" d="M289.144 309.623C138.152 261.347 108.792 381.295 112.986 447.303C152.558 624.634 306.37 567.413 323.572 463.901C340.774 360.389 504.867 542.585 604.622 448.518C720.293 339.443 477.884 369.969 289.144 309.623Z" stroke="white" stroke-opacity="0.1"/>
<path opacity="0.4225" d="M289.827 315.401C140.141 263.237 105.216 381.53 106.464 447.196C138.286 624.4 295.555 571.88 317.513 469.569C339.47 367.258 496.308 552.776 600.868 462.153C722.11 357.073 476.936 380.606 289.827 315.401Z" stroke="white" stroke-opacity="0.1"/>
<path opacity="0.38125" d="M290.256 321.159C142.057 265.171 101.61 381.663 99.9111 446.908C123.944 623.769 284.478 576.012 311.165 475.028C337.851 374.043 487.243 562.657 596.48 475.59C723.145 374.632 475.505 391.143 290.256 321.159Z" stroke="white" stroke-opacity="0.1"/>
<path opacity="0.34" d="M290.427 326.888C143.895 267.144 97.9756 381.695 93.3322 446.438C109.547 622.74 273.151 579.806 304.533 480.271C335.916 380.735 477.681 572.215 591.461 488.809C723.395 392.097 473.591 401.567 290.427 326.888Z" stroke="white" stroke-opacity="0.1"/>
<path opacity="0.29875" d="M290.341 332.582C145.656 269.156 94.3199 381.624 86.7372 445.787C95.1136 621.316 261.588 583.257 297.629 485.292C333.669 387.327 467.633 581.439 585.82 501.796C722.861 409.447 471.197 411.864 290.341 332.582Z" stroke="white" stroke-opacity="0.1"/>
<path opacity="0.2575" d="M289.999 338.234C147.337 271.202 90.6464 381.452 80.1337 444.957C80.6616 619.498 249.804 586.361 290.458 490.085C331.113 393.81 457.114 590.319 579.561 514.536C721.544 426.662 468.327 422.023 289.999 338.234Z" stroke="white" stroke-opacity="0.1"/>
<path opacity="0.21625" d="M289.401 343.837C148.936 273.281 86.9596 381.179 73.5298 443.947C66.2087 617.289 237.813 589.113 283.032 494.644C328.251 400.176 446.134 598.842 572.694 527.011C719.445 443.72 464.983 432.031 289.401 343.837Z" stroke="white" stroke-opacity="0.1"/>
<path opacity="0.175" d="M288.547 349.384C150.449 275.391 83.2637 380.804 66.933 442.76C51.7718 614.691 225.628 591.511 275.357 498.964C325.085 406.418 434.708 606.999 565.226 539.207C716.566 460.601 461.169 441.876 288.547 349.384Z" stroke="white" stroke-opacity="0.1"/>
<path opacity="0.13375" d="M287.439 354.869C151.877 277.528 79.5636 380.329 60.352 441.396C37.3691 611.707 213.266 593.551 267.444 503.039C321.621 412.528 422.85 614.779 557.166 551.11C712.912 477.284 456.891 451.545 287.439 354.869Z" stroke="white" stroke-opacity="0.1"/>
<path opacity="0.0925" d="M286.077 360.285C153.217 279.69 75.8636 379.753 53.7945 439.858C23.018 608.341 200.742 595.231 259.302 506.865C317.862 418.499 410.573 622.174 548.525 562.705C708.485 493.748 452.153 461.028 286.077 360.285Z" stroke="white" stroke-opacity="0.1"/>
<path opacity="0.05125" d="M284.465 365.625C154.467 281.875 72.1684 379.078 47.2686 438.148C8.73588 604.597 188.07 596.549 250.941 510.436C313.813 424.323 397.894 629.173 539.312 573.977C703.293 509.974 446.961 470.312 284.465 365.625Z" stroke="white" stroke-opacity="0.1"/>
<path opacity="0.01" d="M282.602 370.883C155.626 284.08 68.4822 378.304 40.7821 436.266C-5.45975 600.48 175.265 597.504 242.372 513.748C309.478 429.993 384.826 635.77 529.54 584.913C697.341 525.942 441.322 479.387 282.602 370.883Z" stroke="white" stroke-opacity="0.1"/>
</svg>
