<svg width="701" height="777" viewBox="0 0 701 777" fill="none" xmlns="http://www.w3.org/2000/svg">
<path d="M223.024 534.05C230.752 683.945 351.517 634.646 410.933 591.26C560.761 452.093 454.777 363.932 353.374 412.974C251.972 462.016 363.201 220.43 241.944 197.799C101.342 171.557 213.365 346.681 223.024 534.05Z" stroke="white" stroke-opacity="0.1" stroke-width="3"/>
<path opacity="0.95875" d="M228.116 529.999C231.807 681.209 352.971 637.36 413.091 596.534C565.483 463.634 462.637 369.862 360.697 414.376C258.757 458.891 375.559 221.085 255.816 192.526C116.97 159.412 223.502 340.986 228.116 529.999Z" stroke="white" stroke-opacity="0.1" stroke-width="3"/>
<path opacity="0.9175" d="M233.277 526.165C232.927 678.507 354.342 640.16 415.092 601.944C569.863 475.475 470.281 376.204 367.927 416.137C265.574 456.07 387.807 222.334 269.724 187.883C132.803 147.936 233.713 335.738 233.277 526.165Z" stroke="white" stroke-opacity="0.1" stroke-width="3"/>
<path opacity="0.87625" d="M238.5 522.554C234.111 675.84 355.628 643.043 416.935 607.484C573.896 487.599 477.698 382.951 375.056 418.253C272.414 453.556 399.93 224.175 283.651 183.873C148.821 137.142 243.987 330.945 238.5 522.554Z" stroke="white" stroke-opacity="0.1" stroke-width="3"/>
<path opacity="0.835" d="M243.78 519.168C235.356 673.214 356.828 646.006 418.617 613.147C577.577 499.992 484.881 390.094 382.076 420.723C279.27 451.353 411.912 226.605 297.579 180.503C165.005 127.045 254.311 326.611 243.78 519.168Z" stroke="white" stroke-opacity="0.1" stroke-width="3"/>
<path opacity="0.79375" d="M249.111 516.013C236.661 670.63 357.94 649.045 420.136 618.925C580.901 512.639 491.82 397.625 388.976 423.544C286.132 449.463 423.739 229.623 311.491 177.775C181.335 117.656 264.672 322.743 249.111 516.013Z" stroke="white" stroke-opacity="0.1" stroke-width="3"/>
<path opacity="0.7525" d="M254.484 513.093C238.026 668.092 358.964 652.156 421.49 624.813C583.865 525.524 498.507 405.535 395.75 426.711C292.993 447.888 435.398 233.224 325.371 175.694C197.791 108.986 275.057 319.344 254.484 513.093Z" stroke="white" stroke-opacity="0.1" stroke-width="3"/>
<path opacity="0.71125" d="M259.895 510.41C239.447 665.603 359.897 655.335 422.678 630.803C586.464 538.632 504.934 413.813 402.389 430.222C299.844 446.63 446.873 237.404 339.202 174.262C214.353 101.047 285.455 316.419 259.895 510.41Z" stroke="white" stroke-opacity="0.1" stroke-width="3"/>
<path opacity="0.67" d="M265.336 507.969C240.924 663.166 360.739 658.58 423.698 636.887C588.696 551.947 511.093 422.45 408.885 434.071C306.677 445.692 458.15 242.157 352.966 173.481C231.001 93.8481 295.852 313.971 265.336 507.969Z" stroke="white" stroke-opacity="0.1" stroke-width="3"/>
<path opacity="0.62875" d="M270.801 505.771C242.454 660.784 361.488 661.884 424.549 643.057C590.558 565.452 516.976 431.436 415.23 438.254C313.484 445.073 469.217 247.479 366.648 173.351C247.715 87.3974 306.235 312.004 270.801 505.771Z" stroke="white" stroke-opacity="0.1" stroke-width="3"/>
<path opacity="0.5875" d="M276.284 503.821C244.036 658.461 362.144 665.246 425.229 649.308C592.048 579.132 522.576 440.759 421.416 442.767C320.255 444.775 480.059 253.362 380.23 173.874C264.473 81.7035 316.593 310.521 276.284 503.821Z" stroke="white" stroke-opacity="0.1" stroke-width="3"/>
<path opacity="0.54625" d="M281.776 502.12C245.668 656.198 362.706 668.66 425.739 655.631C593.163 592.969 527.886 450.409 427.435 447.604C326.983 444.799 490.663 259.8 393.695 175.047C281.257 76.7732 326.911 309.522 281.776 502.12Z" stroke="white" stroke-opacity="0.1" stroke-width="3"/>
<path opacity="0.505" d="M287.272 500.67C247.347 653.999 363.173 672.122 426.076 662.018C593.902 606.947 532.901 460.372 433.281 452.758C333.66 445.143 501.016 266.784 407.028 176.87C298.045 72.6122 337.179 309.008 287.272 500.67Z" stroke="white" stroke-opacity="0.1" stroke-width="3"/>
<path opacity="0.46375" d="M292.766 499.472C249.073 651.865 363.545 675.628 426.242 668.461C594.265 621.047 537.614 470.637 438.946 458.222C340.278 445.808 511.106 274.305 420.213 179.341C314.818 69.2251 347.383 308.981 292.766 499.472Z" stroke="white" stroke-opacity="0.1" stroke-width="3"/>
<path opacity="0.4225" d="M298.25 498.53C250.841 649.801 363.82 679.175 426.236 674.953C594.251 635.255 542.018 481.193 444.423 463.993C346.828 446.793 520.921 282.357 433.232 182.456C331.553 66.6178 357.51 309.441 298.25 498.53Z" stroke="white" stroke-opacity="0.1" stroke-width="3"/>
<path opacity="0.38125" d="M303.717 497.843C252.652 647.808 364 682.756 426.057 681.485C593.86 649.551 546.109 492.024 449.706 470.06C353.302 448.096 530.448 290.926 446.07 186.212C348.232 64.7912 367.549 310.386 303.717 497.843Z" stroke="white" stroke-opacity="0.1" stroke-width="3"/>
<path opacity="0.34" d="M309.162 497.413C254.501 645.889 364.083 686.37 425.707 688.051C593.093 663.92 549.882 503.12 454.788 476.419C359.693 449.718 539.675 300.005 458.713 190.604C364.833 63.7499 377.488 311.818 309.162 497.413Z" stroke="white" stroke-opacity="0.1" stroke-width="3"/>
<path opacity="0.29875" d="M314.577 497.239C256.387 644.046 364.07 690.009 425.184 694.641C591.95 678.342 553.332 514.466 459.663 483.06C365.993 451.653 548.592 309.58 471.143 195.627C381.337 63.4933 387.313 313.731 314.577 497.239Z" stroke="white" stroke-opacity="0.1" stroke-width="3"/>
<path opacity="0.2575" d="M319.955 497.323C258.309 642.281 363.96 693.672 424.491 701.247C590.433 692.801 556.455 526.047 464.325 489.975C372.195 453.902 557.188 319.642 483.346 201.274C397.724 64.0224 397.014 316.126 319.955 497.323Z" stroke="white" stroke-opacity="0.1" stroke-width="3"/>
<path opacity="0.21625" d="M325.292 497.664C260.262 640.596 363.754 697.351 423.628 707.862C588.544 707.278 559.247 537.851 468.768 497.156C378.29 456.46 565.452 330.177 495.308 207.54C413.973 65.3363 406.578 318.998 325.292 497.664Z" stroke="white" stroke-opacity="0.1" stroke-width="3"/>
<path opacity="0.175" d="M330.578 498.262C262.246 638.995 363.451 701.045 422.596 714.479C586.284 721.758 561.704 549.863 472.987 504.594C384.27 459.326 573.374 341.173 507.013 214.415C430.065 67.434 415.994 322.345 330.578 498.262Z" stroke="white" stroke-opacity="0.1" stroke-width="3"/>
<path opacity="0.13375" d="M335.809 499.115C264.257 637.477 363.053 704.747 421.396 721.087C583.658 736.22 563.825 562.067 476.977 512.281C390.13 462.495 580.945 352.617 518.448 221.892C445.98 70.3125 425.25 326.162 335.809 499.115Z" stroke="white" stroke-opacity="0.1" stroke-width="3"/>
<path opacity="0.0925" d="M340.978 500.224C266.293 636.047 362.56 708.454 420.029 727.68C580.667 750.649 565.605 574.45 480.734 520.207C395.862 465.963 588.155 364.494 529.598 229.962C461.698 73.9682 434.335 330.445 340.978 500.224Z" stroke="white" stroke-opacity="0.1" stroke-width="3"/>
<path opacity="0.05125" d="M346.079 501.586C268.352 634.704 361.972 712.161 418.498 734.249C577.316 765.027 567.044 586.996 484.251 528.362C401.458 469.727 594.996 376.789 540.45 238.615C477.202 78.3968 443.238 335.188 346.079 501.586Z" stroke="white" stroke-opacity="0.1" stroke-width="3"/>
<path opacity="0.01" d="M351.105 503.2C270.431 633.451 361.29 715.863 416.804 740.787C573.609 779.335 568.139 599.69 487.526 536.736C406.913 473.782 601.458 389.489 550.99 247.84C492.47 83.593 451.948 340.386 351.105 503.2Z" stroke="white" stroke-opacity="0.1" stroke-width="3"/>
</svg>
