<svg width="569" height="461" viewBox="0 0 569 461" fill="none" xmlns="http://www.w3.org/2000/svg">
<path fill-rule="evenodd" clip-rule="evenodd" d="M349.925 56.1909C379.531 46.8535 415.053 30.9842 442.304 45.3723C470.527 60.2738 461.429 97.4782 475.963 122.737C487.307 142.451 517.051 154.941 517.859 176.679C518.667 198.406 486.879 210.447 479.998 231.253C469.498 263.005 501.835 311.984 467.84 327.929C434.641 343.502 404.104 291.576 366.541 284.47C335.246 278.55 296.236 310.217 273.21 291.112C249.172 271.169 282.035 236.015 274.843 208.39C268.952 185.766 234.124 171.327 236.043 148.358C237.959 125.423 264.826 110.965 284.299 95.2055C304.003 79.2591 324.271 64.2819 349.925 56.1909Z" stroke="white" stroke-opacity="0.1" stroke-width="3"/>
<path opacity="0.95875" fill-rule="evenodd" clip-rule="evenodd" d="M350.429 60.1396C380.425 51.6881 416.607 36.8881 443.267 52.0604C470.879 67.7741 460.242 104.66 473.735 130.313C484.266 150.334 513.498 163.685 513.409 185.418C513.319 207.139 481.029 218.226 473.288 238.8C461.474 270.2 491.792 320.066 457.134 334.987C423.286 349.559 394.891 296.803 357.616 288.599C326.561 281.764 286.238 312.237 263.997 292.479C240.78 271.854 275.1 237.717 269.048 209.918C264.091 187.151 229.854 171.704 232.723 148.823C235.587 125.975 263.055 112.33 283.182 97.1655C303.547 81.822 324.437 67.4629 350.429 60.1396Z" stroke="white" stroke-opacity="0.1" stroke-width="3"/>
<path opacity="0.9175" fill-rule="evenodd" clip-rule="evenodd" d="M350.77 64.0979C381.119 56.5426 417.918 42.8299 443.955 58.768C470.922 75.2748 458.76 111.796 471.195 137.813C480.899 158.118 509.584 172.312 508.597 194.013C507.61 215.702 474.858 225.821 466.265 246.14C453.153 277.148 481.415 327.84 446.135 341.719C411.681 355.273 385.461 301.751 348.52 292.459C317.743 284.717 276.155 313.959 254.728 293.573C232.36 272.291 268.094 239.213 263.19 211.272C259.173 188.39 225.57 171.954 229.384 149.189C233.192 126.457 261.228 113.64 281.984 99.0901C302.986 84.368 324.472 70.6447 350.77 64.0979Z" stroke="white" stroke-opacity="0.1" stroke-width="3"/>
<path opacity="0.87625" fill-rule="evenodd" clip-rule="evenodd" d="M350.948 68.0609C381.613 61.4111 418.984 48.8023 444.366 65.4867C470.654 82.7665 456.982 118.88 468.344 145.228C477.211 165.791 505.314 180.813 503.43 202.455C501.547 224.085 468.371 233.225 458.938 253.262C444.543 283.841 470.715 335.299 434.857 348.118C399.838 360.637 375.825 306.414 339.263 296.046C308.801 287.407 266 315.382 245.412 294.391C223.92 272.478 261.026 240.499 257.275 212.452C254.203 189.482 221.274 172.078 226.029 149.456C230.777 126.867 259.346 114.895 280.707 100.977C302.319 86.8941 324.376 73.8231 350.948 68.0609Z" stroke="white" stroke-opacity="0.1" stroke-width="3"/>
<path opacity="0.835" fill-rule="evenodd" clip-rule="evenodd" d="M350.962 72.0238C381.906 66.2874 419.803 54.7981 444.5 72.2085C470.078 90.2402 454.911 125.901 465.186 152.548C473.205 173.345 500.691 189.175 497.913 210.732C495.136 232.278 461.578 240.427 451.316 260.159C435.655 290.272 459.706 342.431 423.313 354.175C387.772 365.644 365.996 310.787 329.857 299.354C299.748 289.828 255.784 316.504 236.061 294.934C215.471 272.417 253.904 241.576 251.311 213.456C249.188 190.427 216.973 172.074 222.663 149.624C228.345 127.205 257.413 116.092 279.351 102.823C301.549 89.3971 324.148 76.9944 350.962 72.0238Z" stroke="white" stroke-opacity="0.1" stroke-width="3"/>
<path opacity="0.79375" fill-rule="evenodd" clip-rule="evenodd" d="M350.812 75.9816C381.998 71.1658 420.374 60.8098 444.355 78.925C469.192 97.6867 452.55 132.852 461.726 159.766C468.887 180.771 495.723 197.39 492.053 218.836C488.386 240.27 454.487 247.418 443.408 266.821C426.501 296.431 448.4 349.229 411.517 359.884C375.497 370.289 355.984 314.864 320.313 302.381C290.593 291.98 245.521 317.322 226.686 295.2C207.023 272.106 246.736 242.44 245.304 214.282C244.132 191.222 212.671 171.944 219.289 149.692C225.898 127.472 255.429 117.231 277.919 104.627C300.674 91.8739 323.789 80.1546 350.812 75.9816Z" stroke="white" stroke-opacity="0.1" stroke-width="3"/>
<path opacity="0.7525" fill-rule="evenodd" clip-rule="evenodd" d="M350.499 79.9297C381.888 76.0403 420.698 66.8303 443.934 85.6282C467.999 105.097 449.902 139.724 457.967 166.872C464.261 188.06 490.414 205.448 485.858 226.756C481.305 248.053 447.106 254.192 435.224 273.241C417.091 302.312 436.812 355.684 399.483 365.237C363.028 374.566 345.803 318.641 310.642 305.122C281.348 293.858 235.223 317.837 217.299 295.189C198.588 271.547 239.531 243.093 239.263 214.931C239.043 191.867 208.374 171.688 215.912 149.66C223.44 127.666 253.398 118.31 276.412 106.386C299.697 94.3216 323.3 83.3 350.499 79.9297Z" stroke="white" stroke-opacity="0.1" stroke-width="3"/>
<path opacity="0.71125" fill-rule="evenodd" clip-rule="evenodd" d="M350.022 83.8632C381.577 80.9049 420.772 72.8521 443.235 92.3098C466.499 112.462 446.969 146.508 453.913 173.857C459.333 195.202 484.772 213.338 479.335 234.483C473.901 255.616 439.443 260.738 426.773 279.411C407.437 307.908 424.955 361.789 387.227 370.228C350.381 378.468 335.464 322.111 300.857 307.574C272.023 295.462 224.902 318.047 207.911 294.901C190.174 270.739 232.298 243.531 233.193 215.4C233.927 192.361 204.087 171.304 212.536 149.53C220.974 127.787 251.323 119.327 274.832 108.098C298.619 96.7371 322.68 86.4267 350.022 83.8632Z" stroke="white" stroke-opacity="0.1" stroke-width="3"/>
<path opacity="0.67" fill-rule="evenodd" clip-rule="evenodd" d="M349.383 87.7773C381.064 85.7537 420.598 78.868 442.26 98.9618C464.695 119.773 443.756 153.196 449.571 180.713C454.11 202.189 478.802 221.05 472.491 242.006C466.184 262.951 431.51 267.049 418.066 285.323C397.55 313.211 412.845 367.536 374.762 374.85C337.572 381.993 324.98 325.272 290.969 309.734C262.632 296.788 214.57 317.953 198.533 294.337C181.792 269.685 225.046 243.756 227.104 215.689C228.789 192.703 199.815 170.795 209.165 149.299C218.502 127.835 249.205 120.282 273.181 109.762C297.441 99.1175 321.932 89.5308 349.383 87.7773Z" stroke="white" stroke-opacity="0.1" stroke-width="3"/>
<path opacity="0.62875" fill-rule="evenodd" clip-rule="evenodd" d="M348.583 91.6672C380.351 90.5808 420.175 84.8705 441.01 105.576C462.588 127.02 440.266 159.781 444.945 187.432C448.597 209.012 472.514 228.576 465.336 249.318C458.162 270.048 423.314 273.118 409.114 290.97C387.443 318.216 400.495 372.918 362.105 379.099C324.614 385.135 314.364 328.12 280.99 311.599C253.184 297.835 204.241 317.554 189.178 293.497C173.453 268.384 217.784 243.767 221.002 215.799C223.637 192.894 195.563 170.161 205.803 148.97C216.028 127.81 247.047 121.173 271.462 111.374C296.165 101.46 321.055 92.6087 348.583 91.6672Z" stroke="white" stroke-opacity="0.1" stroke-width="3"/>
<path opacity="0.5875" fill-rule="evenodd" clip-rule="evenodd" d="M347.621 95.5283C379.439 95.3803 419.505 90.8524 439.487 112.144C460.182 134.196 436.503 166.254 440.041 194.005C442.802 215.664 465.914 235.907 457.878 256.408C449.846 276.899 414.867 278.937 399.927 296.346C377.127 322.915 387.922 377.928 349.271 382.968C311.525 387.89 303.629 330.65 270.933 313.168C243.692 298.602 193.928 316.85 179.856 292.382C165.166 266.84 210.521 243.564 214.894 215.728C218.475 192.932 191.338 169.402 202.454 148.542C213.555 127.712 244.853 121.999 269.675 112.934C294.791 103.762 320.05 95.6565 347.621 95.5283Z" stroke="white" stroke-opacity="0.1" stroke-width="3"/>
<path opacity="0.54625" fill-rule="evenodd" clip-rule="evenodd" d="M346.5 99.3557C378.329 100.146 418.587 96.8064 437.692 118.659C457.479 141.291 432.472 172.606 434.864 200.424C436.731 222.135 459.009 243.033 450.126 263.269C441.247 283.495 406.178 284.498 390.517 301.444C366.616 327.304 375.139 382.56 336.275 386.454C298.321 390.256 292.788 332.861 260.81 314.438C234.167 299.088 183.642 315.844 170.578 290.994C156.942 265.053 203.265 243.146 208.788 215.478C213.312 192.818 187.143 168.519 199.123 148.015C211.085 127.541 242.623 122.759 267.824 114.439C293.323 106.02 318.92 98.6705 346.5 99.3557Z" stroke="white" stroke-opacity="0.1" stroke-width="3"/>
<path opacity="0.505" fill-rule="evenodd" clip-rule="evenodd" d="M345.22 103.145C377.021 104.873 417.422 102.725 435.628 125.111C454.483 148.296 428.178 178.832 429.421 206.683C430.391 228.419 451.81 249.945 442.089 269.892C432.373 289.829 397.258 289.796 380.895 306.257C355.922 331.377 362.164 386.81 323.133 389.551C285.017 392.229 281.855 334.749 250.633 315.407C224.62 299.293 173.395 314.536 161.357 289.334C148.79 263.026 196.025 242.515 202.692 215.047C208.153 192.552 182.983 167.514 195.812 147.392C208.623 127.298 240.363 123.453 265.91 115.887C291.76 108.231 317.665 101.647 345.22 103.145Z" stroke="white" stroke-opacity="0.1" stroke-width="3"/>
<path opacity="0.46375" fill-rule="evenodd" clip-rule="evenodd" d="M343.784 106.891C375.518 109.555 416.014 108.602 433.297 131.494C451.197 155.204 423.627 184.922 423.719 212.772C423.792 234.507 444.324 256.636 433.777 276.269C423.237 295.892 388.118 294.824 371.072 310.779C345.058 335.129 349.011 390.67 309.862 392.257C271.629 393.807 270.841 336.311 240.414 316.075C215.063 299.216 163.202 312.927 152.203 287.404C140.721 260.761 188.81 241.672 196.613 214.438C203.004 192.134 178.865 166.388 192.527 146.671C206.169 126.983 238.073 124.078 263.937 117.276C290.106 110.394 316.287 104.583 343.784 106.891Z" stroke="white" stroke-opacity="0.1" stroke-width="3"/>
<path opacity="0.4225" fill-rule="evenodd" clip-rule="evenodd" d="M342.193 110.59C373.821 114.186 414.362 114.429 430.702 137.8C447.624 162.005 418.823 190.87 417.765 218.685C416.939 240.393 436.56 263.097 425.201 282.392C413.848 301.678 378.769 299.575 361.062 315.006C334.038 338.555 335.697 394.138 296.476 394.568C258.174 394.988 259.762 337.547 230.166 316.441C205.509 298.857 153.074 311.019 143.128 285.207C132.745 258.262 181.629 240.616 190.558 213.649C197.871 191.564 174.793 165.142 189.272 145.854C203.729 126.595 235.757 124.636 261.905 118.606C288.363 112.505 314.787 107.474 342.193 110.59Z" stroke="white" stroke-opacity="0.1" stroke-width="3"/>
<path opacity="0.38125" fill-rule="evenodd" clip-rule="evenodd" d="M340.449 114.237C371.932 118.761 412.469 120.199 427.846 144.021C443.771 168.692 413.773 196.668 411.566 224.414C409.843 246.068 428.529 269.32 416.371 288.254C404.22 307.178 369.222 304.044 350.875 318.932C322.875 341.652 322.237 397.208 282.994 396.481C244.669 395.77 248.63 338.454 219.902 316.504C195.967 298.216 143.023 308.816 134.142 282.745C124.871 255.53 174.49 239.351 184.535 212.684C192.762 190.844 170.772 163.777 186.049 144.943C201.304 126.136 233.417 125.124 259.819 119.874C286.532 114.561 313.168 110.316 340.449 114.237Z" stroke="white" stroke-opacity="0.1" stroke-width="3"/>
<path opacity="0.34" fill-rule="evenodd" clip-rule="evenodd" d="M338.554 117.827C369.855 123.274 410.338 125.906 424.732 150.148C439.64 175.256 408.483 202.309 405.129 229.952C402.511 251.526 420.239 275.298 407.297 293.848C394.363 312.388 359.49 308.226 340.525 322.552C311.582 344.415 308.649 399.877 269.43 397.993C231.13 396.153 237.459 339.032 209.634 316.264C186.451 297.295 133.061 306.319 125.256 280.022C117.108 252.57 167.403 237.876 178.551 211.542C187.681 189.975 166.806 162.295 182.864 143.938C198.898 125.606 231.057 125.543 257.679 121.078C284.616 116.561 311.431 113.107 338.554 117.827Z" stroke="white" stroke-opacity="0.1" stroke-width="3"/>
<path opacity="0.29875" fill-rule="evenodd" clip-rule="evenodd" d="M336.51 121.357C367.59 127.72 407.97 131.542 421.365 156.176C435.238 181.689 402.959 207.787 398.462 235.293C394.953 256.761 411.701 281.023 397.991 299.166C384.289 317.299 349.583 312.114 330.024 325.861C300.174 346.841 294.949 402.141 255.803 399.103C217.572 396.136 226.262 339.28 199.374 315.722C176.972 296.095 123.202 303.531 116.482 277.04C109.467 249.385 160.376 236.195 172.613 210.225C182.635 188.956 162.901 160.699 179.72 142.84C196.513 125.006 228.68 125.892 255.49 122.218C282.617 118.501 309.578 115.843 336.51 121.357Z" stroke="white" stroke-opacity="0.1" stroke-width="3"/>
<path opacity="0.2575" fill-rule="evenodd" clip-rule="evenodd" d="M334.32 124.822C365.142 132.092 405.37 137.1 417.749 162.096C430.57 187.984 397.207 213.094 391.574 240.43C387.178 261.765 402.926 286.488 388.464 304.203C374.011 321.907 339.514 315.705 319.384 328.857C288.663 348.928 281.153 403.999 242.127 399.81C204.014 395.72 215.054 339.196 189.135 314.878C167.541 294.616 113.456 300.457 107.829 273.803C101.956 245.979 153.417 234.308 166.729 208.735C177.631 187.791 159.062 158.989 176.62 141.65C194.153 124.337 226.288 126.17 253.253 123.292C280.538 120.38 307.612 118.521 334.32 124.822Z" stroke="white" stroke-opacity="0.1" stroke-width="3"/>
<path opacity="0.21625" fill-rule="evenodd" clip-rule="evenodd" d="M331.987 128.217C362.513 136.387 402.539 142.574 413.887 167.902C425.64 194.133 391.236 218.224 384.473 245.357C379.194 266.534 393.923 291.688 378.728 308.951C363.541 326.205 329.296 318.994 308.62 331.535C277.065 350.672 267.279 405.447 228.42 400.113C190.471 394.904 203.848 338.783 178.93 313.733C158.17 292.862 103.836 297.099 99.3096 270.316C94.5848 242.357 146.535 232.219 160.906 207.073C172.675 186.479 155.292 157.169 173.57 140.372C191.82 123.599 223.884 126.377 250.972 124.298C278.38 122.195 305.536 121.137 331.987 128.217Z" stroke="white" stroke-opacity="0.1" stroke-width="3"/>
<path opacity="0.175" fill-rule="evenodd" clip-rule="evenodd" d="M329.513 131.539C359.706 140.598 399.482 147.958 409.785 173.585C420.457 200.127 385.052 223.172 377.167 250.068C371.013 271.06 384.704 296.614 368.794 313.406C352.892 330.189 318.94 321.978 297.743 333.891C265.393 352.072 253.343 406.484 214.699 400.011C176.96 393.689 192.657 338.039 168.77 312.288C148.869 290.833 94.3529 293.462 90.9327 266.582C87.3623 238.521 139.739 229.93 155.15 205.242C167.772 185.023 151.598 155.24 170.572 139.004C189.518 122.792 221.471 126.512 248.648 125.236C276.148 123.944 303.35 123.689 329.513 131.539Z" stroke="white" stroke-opacity="0.1" stroke-width="3"/>
<path opacity="0.13375" fill-rule="evenodd" clip-rule="evenodd" d="M326.901 134.783C356.724 144.721 396.202 153.244 405.448 179.14C415.024 205.961 378.663 227.93 369.665 254.557C362.643 275.339 375.281 301.263 358.674 317.562C342.077 333.853 308.46 324.652 286.767 335.924C253.662 353.126 239.362 407.108 200.98 399.504C163.497 392.078 181.495 336.966 158.669 310.546C139.652 288.533 85.019 289.551 82.7088 262.606C80.2972 234.478 133.036 227.443 149.469 203.243C162.928 183.424 147.982 153.204 167.629 137.551C187.248 121.919 219.052 126.577 246.286 126.104C273.843 125.625 301.06 126.172 326.901 134.783Z" stroke="white" stroke-opacity="0.1" stroke-width="3"/>
<path opacity="0.0925" fill-rule="evenodd" clip-rule="evenodd" d="M324.156 137.946C353.572 148.75 392.703 158.426 400.881 184.56C409.35 211.626 372.076 232.493 361.977 258.819C354.095 279.365 365.664 305.626 348.382 321.414C331.109 337.193 297.867 327.013 275.706 337.63C241.886 353.832 225.354 407.319 187.28 398.593C150.098 390.072 170.376 335.566 148.639 308.508C130.528 285.964 75.8454 285.369 74.6481 258.393C73.3982 230.232 126.435 224.762 143.871 201.08C158.15 181.684 144.45 151.065 164.747 136.012C185.014 120.981 216.63 126.57 243.888 126.901C271.468 127.235 298.666 128.585 324.156 137.946Z" stroke="white" stroke-opacity="0.1" stroke-width="3"/>
<path opacity="0.05125" fill-rule="evenodd" clip-rule="evenodd" d="M321.279 141.024C350.253 152.68 388.99 163.497 396.089 189.837C403.441 217.117 365.3 236.855 354.112 262.848C345.38 283.134 355.866 309.701 337.929 324.957C320.002 340.205 287.176 329.058 264.573 339.007C230.078 354.19 211.334 407.117 173.616 397.28C136.781 387.673 159.313 333.839 138.691 306.177C121.509 283.13 66.8433 280.923 66.7603 253.947C66.6736 225.788 119.944 221.89 138.36 198.754C153.443 179.806 141.006 148.825 161.928 134.391C182.818 119.977 214.208 126.492 241.456 127.626C269.026 128.774 296.172 130.923 321.279 141.024Z" stroke="white" stroke-opacity="0.1" stroke-width="3"/>
<path opacity="0.01" fill-rule="evenodd" clip-rule="evenodd" d="M318.275 144.013C346.771 156.508 385.067 168.453 391.079 194.966C397.305 222.426 358.343 241.013 346.08 266.64C336.509 286.641 345.898 313.48 327.328 328.187C308.769 342.886 276.399 330.786 253.382 340.054C218.255 354.199 197.322 406.501 160.005 395.565C123.562 384.885 148.321 331.789 128.838 303.556C112.606 280.033 58.0242 276.217 59.0556 249.276C60.1323 221.152 113.571 218.83 132.946 196.269C148.813 177.792 137.655 146.486 159.176 132.688C180.665 118.911 211.789 126.342 238.994 128.278C266.521 130.238 293.582 133.185 318.275 144.013Z" stroke="white" stroke-opacity="0.1" stroke-width="3"/>
</svg>
