<?xml version="1.0" standalone="no"?>
<!DOCTYPE svg PUBLIC "-//W3C//DTD SVG 20010904//EN"
 "http://www.w3.org/TR/2001/REC-SVG-20010904/DTD/svg10.dtd">
<svg version="1.0" xmlns="http://www.w3.org/2000/svg"
 width="102px" height="252px" viewBox="0 0 102 252"
 preserveAspectRatio="xMidYMid meet">
<metadata>
Created by potrace 1.10, written by Peter Selinger 2001-2011
</metadata>
<g transform="translate(0.000000,252.000000) scale(0.100000,-0.100000)"
fill="#000000" stroke="none">
<path d="M365 2413 c-105 -38 -181 -110 -233 -220 -24 -52 -27 -69 -27 -168 0
-99 3 -116 28 -169 38 -81 87 -139 152 -178 l54 -33 1 -772 0 -773 80 0 80 0
0 759 0 758 45 6 c116 16 232 107 288 225 30 63 32 74 32 177 0 103 -2 114
-32 177 -39 83 -108 155 -187 193 -77 38 -203 45 -281 18z m270 -43 c67 -32
140 -108 173 -178 24 -51 27 -69 27 -167 0 -102 -2 -114 -30 -169 -53 -105
-156 -186 -256 -202 -79 -13 -73 44 -79 -782 l-5 -737 -45 0 -45 0 -5 760 c-3
418 -6 761 -8 761 -1 1 -33 24 -71 53 -74 55 -129 131 -150 206 -19 71 -13
193 13 257 41 99 119 177 214 213 60 23 205 15 267 -15z"/>
<path d="M412 2281 c-104 -36 -163 -119 -170 -241 -6 -97 20 -162 86 -221 149
-130 358 -48 402 159 13 60 -5 149 -41 204 -31 47 -96 93 -151 107 -60 14 -63
14 -126 -8z m127 -21 c56 -16 106 -58 137 -113 61 -111 28 -260 -74 -327 -124
-82 -274 -24 -328 127 -61 173 98 361 265 313z"/>
</g>
</svg>
