<svg width="347" height="347" viewBox="0 0 347 347" fill="none" xmlns="http://www.w3.org/2000/svg">
<circle cx="173.5" cy="173.5" r="173.5" fill="#2F19B7" fill-opacity="0.72"/>
<path d="M216.013 341.711C172.819 352.627 127.081 346.51 88.2748 324.625C49.4683 302.741 20.5675 266.767 7.55977 224.157C-5.44798 181.546 -1.56572 135.564 18.4023 95.7379C38.3702 55.9115 72.8935 25.2925 114.82 10.2245L173.5 173.5L216.013 341.711Z" fill="#FFFA87" fill-opacity="0.72"/>
<path d="M216.013 341.711C251.431 332.759 283.12 312.856 306.564 284.838L173.5 173.5L216.013 341.711Z" fill="#D5C7FF" fill-opacity="0.72"/>
<path d="M307.133 284.155C325.445 262.041 337.982 235.727 343.621 207.575C349.26 179.422 347.824 150.31 339.442 122.849L173.5 173.5L307.133 284.155Z" fill="#79AFFF" fill-opacity="0.72"/>
<path d="M216.013 341.711C202.45 345.139 188.522 346.914 174.533 346.997L173.5 173.5L216.013 341.711Z" fill="#196BB7" fill-opacity="0.72"/>
<path d="M174.329 346.998C158.136 347.075 142.012 344.885 126.427 340.492L173.5 173.5L174.329 346.998Z" fill="#9719B7" fill-opacity="0.72"/>
<path d="M126.343 340.469C82.0604 327.962 44.5596 298.376 22.0906 258.22L173.5 173.5L126.343 340.469Z" fill="#F19BFF" fill-opacity="0.72"/>
<path d="M21.6318 257.395C9.97977 236.302 2.84933 213.013 0.694849 189.012L173.5 173.5L21.6318 257.395Z" fill="#D3D1E3" fill-opacity="0.72"/>
<path d="M0.688145 188.937C-2.5991 152.139 5.94609 115.252 25.0795 83.6468L173.5 173.5L0.688145 188.937Z" fill="#BCF3FF" fill-opacity="0.72"/>
</svg>
