<svg width="20" height="24" viewBox="0 0 20 24" fill="none" xmlns="http://www.w3.org/2000/svg">
<path d="M9.90873 0.146179C4.58284 0.146179 0.25 3.84233 0.25 8.38506C0.25 12.7578 9.01353 22.9742 9.38668 23.4068L9.73492 23.811C9.77565 23.8585 9.8405 23.8863 9.90873 23.8863C9.97801 23.8863 10.0424 23.8585 10.0836 23.811L10.4316 23.4068C10.805 22.9742 19.5683 12.7578 19.5683 8.38506C19.5683 3.84233 15.2348 0.146179 9.90873 0.146179ZM9.90873 5.43391C11.817 5.43391 13.3687 6.75749 13.3687 8.38506C13.3687 10.0118 11.8169 11.3362 9.90873 11.3362C8.00157 11.3362 6.44871 10.0118 6.44871 8.38506C6.44871 6.75749 8.0015 5.43391 9.90873 5.43391Z" fill="white"/>
</svg>
